#tb 0: 1/25
#media_type 0: video
#codec_id 0: rawvideo
#dimensions 0: 1440x1080
#sar 0: 4/3
0,          3,          3,        1,  2332800, 0xa9dcb2ac
0,          4,          4,        1,  2332800, 0x9b17af27
0,          5,          5,        1,  2332800, 0x02da3196
0,          6,          6,        1,  2332800, 0x9c78ed62
0,          7,          7,        1,  2332800, 0xa6e926a0
0,          8,          8,        1,  2332800, 0x324e51d2
0,          9,          9,        1,  2332800, 0xd8289620
0,         10,         10,        1,  2332800, 0xfc3619f9
0,         11,         11,        1,  2332800, 0x6b8d2560
0,         12,         12,        1,  2332800, 0x5714dca0
0,         13,         13,        1,  2332800, 0x246e2842
0,         14,         14,        1,  2332800, 0x59bc0b2e
0,         15,         15,        1,  2332800, 0x24fe5cfa
0,         16,         16,        1,  2332800, 0xb9607c3e
0,         17,         17,        1,  2332800, 0x663669c9
0,         19,         19,        1,  2332800, 0xd37fd62f
0,         20,         20,        1,  2332800, 0x2d7db904
0,         21,         21,        1,  2332800, 0x79a53eba
0,         22,         22,        1,  2332800, 0x3b0c7e19
0,         23,         23,        1,  2332800, 0xd12f64c5
0,         24,         24,        1,  2332800, 0xacdb407f
0,         25,         25,        1,  2332800, 0x829d7e61
0,         26,         26,        1,  2332800, 0x7932b82f
0,         27,         27,        1,  2332800, 0x61f81627
0,         28,         28,        1,  2332800, 0xa1a2e000
0,         29,         29,        1,  2332800, 0x93aad5e9
0,         30,         30,        1,  2332800, 0x9993b5b5
0,         31,         31,        1,  2332800, 0x6ac48232
0,         32,         32,        1,  2332800, 0x5738f9c0
0,         33,         33,        1,  2332800, 0x82a59d01
0,         34,         34,        1,  2332800, 0xc4664862
0,         35,         35,        1,  2332800, 0xf0e6222d
0,         36,         36,        1,  2332800, 0xd29e7100
0,         37,         37,        1,  2332800, 0xe093ef85
0,         38,         38,        1,  2332800, 0x28c68a65
0,         39,         39,        1,  2332800, 0x49a6b21e
0,         40,         40,        1,  2332800, 0xfb28a097
0,         41,         41,        1,  2332800, 0xade1e336
0,         42,         42,        1,  2332800, 0xe5118412
0,         43,         43,        1,  2332800, 0x58750176
0,         44,         44,        1,  2332800, 0xacb99939
0,         45,         45,        1,  2332800, 0x80b968d3
0,         46,         46,        1,  2332800, 0xa45f4e6f
0,         47,         47,        1,  2332800, 0xe0fcbade
0,         48,         48,        1,  2332800, 0x19568f4d
0,         49,         49,        1,  2332800, 0x33c53f59
0,         50,         50,        1,  2332800, 0xbdbe8fbf
